<svg width="112" height="49" viewBox="0 0 112 49" fill="none" xmlns="http://www.w3.org/2000/svg">
<path fill-rule="evenodd" clip-rule="evenodd" d="M44.0631 5.99202C41.7661 9.55661 39.798 13.2598 38.1727 17.0572C40.4333 13.461 42.4056 9.75922 44.0631 5.99202ZM36.7244 7.37156C36.737 7.36101 36.7643 7.35609 36.7957 7.35609C36.8014 7.35609 36.8073 7.3563 36.8132 7.35671C36.8182 7.35706 36.8231 7.35756 36.8279 7.3582C35.7984 10.4832 34.6186 13.566 33.2908 16.6027L33.3442 15.7822C33.368 15.4234 33.1199 15.1048 32.7684 15.0421C32.4176 14.9794 32.0766 15.1929 31.9759 15.5383L29.2891 24.7955C27.9732 27.2275 26.558 29.6258 25.045 31.9882C26.7318 23.3092 30.7472 14.8349 36.7244 7.37156ZM27.6395 30.4793C27.4494 30.7917 27.2576 31.1036 27.0642 31.4148C27.2119 31.2571 27.3591 31.099 27.5056 30.9405L27.6395 30.4793ZM27.7922 32.6879C28.145 32.7594 28.4961 32.5473 28.5985 32.1941L28.7553 31.6539C29.5483 30.7906 30.3236 29.9159 31.0808 29.0308L30.5098 37.7926C30.486 38.1654 30.6992 38.5052 31.0674 38.6807C31.1561 38.7228 31.2561 38.7559 31.3624 38.7781C31.1351 41.7812 31.1132 44.7895 31.3027 47.7844C31.3335 48.2712 31.6497 48.6806 32.1486 48.8804C32.348 48.9606 32.56 49 32.7678 49C33.1589 49 33.5395 48.8628 33.8159 48.606C38.1456 44.5744 41.759 40.0727 44.5619 35.2813C44.8651 35.4888 45.2194 35.6725 45.6345 35.8205C47.2809 36.409 49.3215 36.2448 51.1063 36.0467L51.4865 36.0044C51.2342 37.6396 51.1021 39.4771 51.1028 41.5796C51.0776 41.6973 51.0818 41.82 51.121 41.937C51.2167 42.2253 51.4837 42.4177 51.7835 42.4177C51.7863 42.4177 51.7889 42.4177 51.7916 42.4178C51.8096 42.4182 51.8267 42.4186 51.8729 42.4008C51.9903 42.3881 52.1021 42.3465 52.1986 42.2795C52.2859 42.2189 52.3733 42.159 52.4606 42.0991C53.2517 41.6579 54.5585 40.8452 55.2077 40.2433C55.4892 40.2109 55.8621 40.1496 56.3631 40.0671L56.3978 40.0614C57.2748 39.9155 58.5306 39.7048 60.052 39.4454C63.0933 38.9295 67.1947 38.2261 71.4373 37.4909C76.4758 36.6183 88.4956 34.525 91.2819 33.9477L91.2821 33.9477C91.8872 33.8222 92.4587 33.7038 92.3818 33.0392C92.3392 32.6833 92.2847 32.3365 92.2176 31.9982L111.26 27.7593C111.296 27.7516 111.331 27.7403 111.366 27.7262C111.883 27.5204 112.05 27.0686 111.987 26.7127C111.902 26.239 111.457 25.9127 110.878 25.9007L91.8186 25.518C91.8165 25.4954 91.813 25.4743 91.8088 25.4531C91.7123 24.9654 91.2525 24.6334 90.6278 24.6482L88.4921 24.7032C88.258 24.4072 88.0225 24.1168 87.7884 23.8313L99.6489 23.4958C100.184 23.4803 100.609 23.1949 100.733 22.7663C100.84 22.3991 100.694 22.0136 100.362 21.7845C96.7914 19.3254 92.219 17.385 87.1469 16.0838L87.8946 12.0149C87.9352 11.7957 87.8897 11.5786 87.7751 11.3967L88.4195 7.69073C88.5026 7.21145 88.1965 6.77727 87.6745 6.6349C87.1238 6.48406 86.4201 6.64688 86.1979 7.24598C85.114 10.1802 83.8694 12.7549 82.4417 15.0865C78.1726 14.3626 73.677 14.0708 69.2143 14.2774C68.8998 14.2922 68.5861 14.3091 68.2737 14.3288C69.2513 13.0848 70.2535 11.7245 71.2689 10.2232C71.4729 9.92222 71.4149 9.51342 71.1354 9.28153C70.8544 9.05035 70.4449 9.0722 70.1927 9.33298L65.0612 14.6129C65.0212 14.6177 64.9816 14.6224 64.942 14.627C64.8784 14.6345 64.8151 14.642 64.7509 14.6502L64.7614 14.6255C64.9144 14.2865 64.7795 13.8869 64.4539 13.7121C64.1268 13.538 63.7243 13.648 63.5307 13.9644C63.3365 14.2816 63.1492 14.591 62.9668 14.8927C60.2358 15.3071 57.5956 15.9027 55.1036 16.659L58.5237 7.97478C58.6977 7.53285 58.5069 7.06625 58.0603 6.84071C57.5397 6.57781 56.7556 6.66168 56.423 7.20792C54.7921 9.8715 53.0384 12.5134 51.1655 15.1291C51.0838 14.7357 50.7994 14.3973 50.3775 14.2187C49.7289 13.9443 48.9838 14.1026 48.5682 14.6035C46.4691 17.1329 44.5527 19.7361 42.8225 22.4063L41.2018 18.2766C41.0684 17.9375 40.6994 17.7543 40.35 17.8614C40.0026 17.9671 39.793 18.3245 39.8678 18.6825L40.9349 23.7503L36.0459 23.8884C35.8904 23.8929 35.7507 23.9182 35.6272 23.9596C35.7509 23.5618 35.8783 23.1646 36.0093 22.7682C40.9874 15.874 44.9062 8.49575 47.5705 0.938131C47.6859 0.612414 47.5467 0.249412 47.2437 0.0847951C46.9408 -0.079822 46.5637 0.00107956 46.3545 0.276848C41.2155 7.05288 37.3121 14.4452 34.7506 22.1161C34.1047 23.0063 33.4408 23.8884 32.7594 24.7617L33.0352 20.5259C35.0509 16.3106 36.7805 12.0025 38.2181 7.61216C38.4042 7.04303 38.1545 6.45562 37.5954 6.1503C37.0231 5.83866 36.1436 5.85132 35.635 6.48798C33.9894 8.54288 32.4893 10.6731 31.1404 12.863C31.0417 12.6133 30.8535 12.3938 30.5884 12.2355C30.0496 11.9126 29.1799 11.8873 28.6314 12.4768C20.7469 20.9701 15.4729 30.7317 13.1731 41.0013C11.4009 42.9338 9.523 44.8072 7.54646 46.6116C7.52337 46.632 7.4625 46.637 7.41073 46.6285C8.15516 42.7635 9.22564 38.9154 10.604 35.1257L23.088 12.5359C23.2657 12.2144 23.1678 11.8092 22.8613 11.6066C22.5542 11.4026 22.1456 11.4729 21.9224 11.7649C16.4958 18.842 12.2335 26.5741 9.3159 34.5721L8.53368 35.9889C8.51339 36.0002 8.47351 36.0051 8.43013 36.0009L10.6068 28.1879C13.9665 21.7629 15.8892 14.8743 16.2166 7.98009C16.2341 7.62201 15.9809 7.30895 15.6296 7.25197C15.2714 7.1964 14.9398 7.41237 14.8439 7.75708L9.29701 27.6743C8.41684 29.3451 7.43591 30.9836 6.35914 32.5812C6.33955 32.5932 6.29897 32.5953 6.25979 32.5918L7.81863 27.4675C8.00474 26.8576 7.69479 26.2434 7.06649 25.9747C6.4291 25.7018 5.53074 25.8143 5.12004 26.5572L1.54758 33.0328C1.52099 33.0483 1.46852 33.0525 1.41814 33.0455L2.85664 21.7671C2.90632 21.3816 2.63485 21.0292 2.25144 20.9799C1.86802 20.9412 1.51819 21.2036 1.46852 21.5884L0.00972636 33.0216C-0.0658369 33.621 0.304283 34.1634 0.931878 34.3702C1.55038 34.5756 2.37388 34.4229 2.75099 33.7384L6.32485 27.2607C6.3434 27.2494 6.37887 27.2488 6.41585 27.2481L6.42211 27.248L4.86466 32.3694C4.68485 32.9597 4.96472 33.5492 5.56153 33.8362C6.16113 34.1247 7.0469 34.0635 7.50518 33.3832C7.62202 33.2101 7.73677 33.0378 7.85081 32.8647L7.03081 35.8088C6.86149 36.4166 7.18124 37.0223 7.80813 37.2826C7.97325 37.3502 8.15516 37.3931 8.34197 37.405C7.36805 40.4244 6.58583 43.4734 6.00441 46.5343C5.90576 47.0541 6.15274 47.5508 6.6488 47.8301C7.2477 48.1678 8.00334 48.0946 8.4861 47.6535C9.9295 46.3366 11.3204 44.9831 12.6568 43.5972C12.4637 44.7122 12.3041 45.8336 12.181 46.9578C12.1229 47.4896 12.428 47.9856 12.9604 48.2233C13.6006 48.5104 14.3472 48.3669 14.7774 47.8793C18.4122 43.7569 21.7153 39.4916 24.6783 35.0976C25.1289 35.1328 25.5592 34.9787 25.8677 34.6699C26.5197 34.0165 27.1612 33.3558 27.7922 32.6879ZM30.5893 25.3361C30.8722 24.8115 31.1506 24.2854 31.4244 23.7577L31.235 26.6647C30.7199 27.2913 30.1956 27.9129 29.6624 28.5293L30.5893 25.3361ZM32.5998 27.2111L32.3228 31.4639C32.6658 29.6301 33.0847 27.8041 33.578 25.9902C33.2557 26.3991 32.9297 26.8061 32.5998 27.2111ZM32.81 38.2368C32.5429 41.3526 32.5013 44.4753 32.6922 47.5832C32.7524 47.5986 32.8399 47.5958 32.8643 47.574C37.186 43.5498 40.7749 39.0506 43.5333 34.2624C42.9796 33.4676 42.7994 32.6118 42.6875 32.0799L42.6527 31.9142L36.4676 43.1343C36.0611 43.8708 35.1655 43.9876 34.5274 43.7224C33.9033 43.4635 33.5864 42.8599 33.7571 42.2556C34.475 39.7198 35.3372 37.2215 36.3414 34.7653C35.1886 35.9309 34.0113 37.0882 32.81 38.2368ZM37.9849 31.0475C36.3851 32.7391 34.7338 34.4143 33.0321 36.0716C33.4575 32.5069 34.1769 28.9579 35.1799 25.4572C35.3675 25.6597 35.6619 25.8021 36.0578 25.8105L40.3122 25.8958C40.3781 25.985 40.4603 26.0633 40.5561 26.1285C39.6328 27.7463 38.7755 29.3864 37.9849 31.0475ZM39.1512 31.8565C37.526 35.2992 36.1929 38.8327 35.1592 42.4434C35.2054 42.4434 35.2425 42.442 35.2635 42.4294L42.2128 29.8236L41.9908 28.7687C41.063 29.8038 40.1164 30.8332 39.1512 31.8565ZM43.6869 30.038L44.0551 31.7867C44.1295 32.14 44.2134 32.4863 44.3391 32.8113C44.5464 32.4237 44.7483 32.0344 44.9448 31.6434L44.0536 29.3728L43.6869 30.038ZM43.3914 27.6857L43.2468 27.9481L43.1453 27.4661C43.1636 27.4456 43.1814 27.4253 43.1991 27.4049C43.2179 27.3833 43.2366 27.3617 43.2557 27.34L43.3914 27.6857ZM49.6319 23.504C49.6733 23.359 49.7141 23.2138 49.7541 23.0685L50.9721 23.3351L50.9197 23.4676L49.6319 23.504ZM45.4564 26.828C45.928 26.862 46.4006 26.8905 46.8741 26.9141L46.6686 27.8277C46.3865 28.5291 46.0873 29.2264 45.7712 29.9192L44.9314 27.7803L45.4564 26.828ZM46.9544 32.9327L47.9555 28.4862L48.3515 29.9894L47.782 31.4378C47.6094 31.8777 47.7995 32.3435 48.2446 32.5698C48.4864 32.6924 48.782 32.7404 49.0678 32.7058L49.3061 33.6108C49.3711 33.8561 49.3585 34.2022 49.1845 34.4228C49.042 34.6039 48.7862 34.6871 48.4333 34.6772C48.0874 34.6653 47.5933 34.5609 47.2893 33.7856L46.9544 32.9327ZM45.2654 34.061L45.2728 34.0283C45.2678 34.0373 45.2629 34.0464 45.2579 34.0554C45.2604 34.0573 45.2629 34.0591 45.2654 34.061ZM50.1087 21.7033C50.2576 21.0928 50.3941 20.4804 50.5179 19.8666C51.2194 19.562 51.9408 19.2716 52.6801 18.9962L51.4948 22.0065L50.1087 21.7033ZM48.9304 20.5963C48.8696 20.8659 48.8063 21.1351 48.7404 21.404L48.276 21.3024C48.4403 21.0938 48.6045 20.8844 48.768 20.6758C48.822 20.6492 48.8762 20.6227 48.9304 20.5963ZM49.5379 17.3554C49.6301 16.7375 49.709 16.1184 49.7744 15.4983C49.7219 15.4899 49.6618 15.4934 49.6373 15.5103C48.2155 17.2236 46.8791 18.9713 45.6293 20.7513C46.3556 20.3177 47.114 19.9021 47.9015 19.5058C48.4559 18.7912 49.0014 18.0743 49.5379 17.3554ZM50.8264 18.1761C51.6545 17.8363 52.5071 17.5156 53.381 17.2158L56.0519 10.4332C54.4317 12.9497 52.7019 15.4462 50.868 17.9166C50.8544 18.0031 50.8405 18.0896 50.8264 18.1761ZM29.655 13.4371C29.6704 13.4209 29.704 13.4139 29.7411 13.4139C29.7502 13.4139 29.7592 13.4139 29.7669 13.4146C26.7682 22.3883 21.7971 30.992 15.1832 38.7311C17.6915 29.6505 22.6052 21.0299 29.655 13.4371ZM13.7329 46.9437C13.7077 46.962 13.6447 46.9662 13.5887 46.9557C13.7888 45.1843 14.0792 43.4206 14.4584 41.6738C18.3142 37.4325 21.6747 32.9111 24.4852 28.1914C24.0031 29.9952 23.6197 31.813 23.3364 33.6371C23.2951 33.9045 23.3434 34.1619 23.4672 34.3857C20.5517 38.7009 17.3046 42.8923 13.7329 46.9437ZM86.172 11.0119C86.3132 10.6982 86.4523 10.3811 86.5885 10.059L86.4383 10.9259C86.3467 10.9442 86.2573 10.9731 86.172 11.0119ZM85.6067 15.7124C85.251 15.6313 84.8932 15.5545 84.5333 15.4805C84.8436 14.7461 85.3397 13.9616 86.0602 13.1003L85.6067 15.7124ZM84.8715 19.9442C84.3132 18.9349 84.0224 17.9333 84.1587 16.8366C84.564 16.9198 84.9666 17.0072 85.3663 17.0974L84.8715 19.9442ZM86.6549 22.4534C86.4635 22.218 86.279 21.9868 86.1029 21.7591L86.8919 17.4681C91.1826 18.5754 95.094 20.1528 98.3044 22.1228L86.6549 22.4534ZM78.3815 22.6881C79.9783 20.9944 81.4263 19.202 82.738 17.2419C82.6982 18.968 83.4641 20.494 84.5193 21.972L84.4243 22.5168L78.3815 22.6881ZM56.757 23.1582L52.8799 22.3096L54.425 18.3837C56.8234 17.5922 59.3755 16.9522 62.015 16.4891C61.3644 17.595 60.7956 18.5951 60.2945 19.5185L56.757 23.1582ZM60.908 23.1836L61.4678 21.941C63.1345 20.2318 65.0318 18.2709 67.0584 15.8322C67.795 15.7695 68.5357 15.7201 69.2779 15.6856C73.4394 15.4939 77.6261 15.7413 81.6185 16.3756C80.0692 18.6973 78.32 20.7794 76.35 22.7459L60.908 23.1836ZM43.8015 23.6692C44.3493 23.2618 44.9252 22.8657 45.529 22.4823C45.211 22.8721 44.8909 23.2597 44.5674 23.6467L43.8015 23.6692ZM85.548 24.7786L85.7108 23.8905L86.012 23.8821C86.1035 23.9941 86.1958 24.1062 86.2887 24.2176C86.4334 24.3931 86.5794 24.57 86.7262 24.749L85.548 24.7786ZM55.1791 24.7828L54.6424 24.7716L55.2049 24.7561L55.1791 24.7828ZM76.0257 25.0232C76.3402 24.7307 76.6498 24.4361 76.9538 24.1393L84.1783 23.9342L84.0245 24.8181L76.0257 25.0232ZM72.127 25.1226L65.0933 24.9816L63.0451 24.5333L74.8336 24.1992C74.5135 24.4939 74.1865 24.7878 73.8552 25.0789L72.127 25.1226ZM85.1028 27.199L85.1762 26.7958L86.2161 26.8163C85.8464 26.9453 85.4746 27.0728 85.1028 27.199ZM75.8441 27.3329L73.8985 26.9072C74.0278 26.7972 74.1571 26.6873 74.285 26.5773L79.3096 26.6781C78.8183 26.9495 78.4367 27.2977 78.2019 27.6931C77.3815 27.6684 76.5485 27.4873 75.8441 27.3329ZM49.2181 27.7896L49.0077 26.9904C49.181 26.9939 49.355 26.9974 49.529 27.0002L49.2181 27.7896ZM81.4738 27.6825C81.6017 27.3611 81.5912 27.0235 81.4507 26.7211L83.6863 26.7655L83.5193 27.7255C82.4864 28.061 81.4431 28.3881 80.3892 28.7045C80.8812 28.4691 81.2963 28.1266 81.4738 27.6825ZM49.8666 30.2495L49.8212 30.0775L51.0273 27.0143C51.6842 27.0143 52.3565 27.0108 53.0211 27.0024L49.8666 30.2495ZM91.8689 30.6329C91.4356 29.2529 90.8059 28.0272 90.0876 26.9072L90.1204 26.8952L107.125 27.2364L91.8689 30.6329ZM67.1954 32.051C69.0941 30.6992 70.8642 29.3805 72.5176 28.0483L75.5477 28.7109L75.5545 28.7123C76.5953 28.9391 77.8888 29.2208 79.1844 29.0562C79.1888 29.0557 79.193 29.0552 79.1972 29.0546C79.2043 29.0537 79.2112 29.0526 79.2187 29.0513C75.3269 30.1882 71.3059 31.1912 67.1954 32.051ZM84.1552 32.3492L84.8114 28.7828C86.1392 28.3408 87.4474 27.8834 88.7374 27.4104C89.446 28.4797 90.0687 29.6405 90.4936 30.9381L84.1552 32.3492ZM83.8736 33.8815L83.8792 33.8547L90.8507 32.3027C90.8703 32.3971 90.8877 32.4937 90.9052 32.5902C89.7969 32.8193 87.1979 33.2923 83.8736 33.8815ZM56.9128 33.6708C57.1504 32.5353 57.3622 31.5245 57.5718 30.5899L59.2511 26.8628L66.2778 26.6831L70.7406 27.6593C68.6168 29.3262 66.2995 30.9868 63.7718 32.7312C61.4923 33.1598 59.1882 33.5439 56.8688 33.8836C56.8835 33.8117 56.8982 33.7419 56.9128 33.6708ZM53.2454 34.3742C53.9855 31.3194 55.2476 29.0457 56.9108 26.9227L57.0764 26.9185C56.7647 27.9461 56.5019 28.9893 56.2413 30.136L54.3992 34.2261C54.0155 34.2769 53.6305 34.3269 53.2454 34.3742ZM50.6577 33.2485L50.2845 31.8332L55.012 26.9678L55.1057 26.9657C53.5711 29.0985 52.4173 31.4449 51.752 34.5546C51.4858 34.5856 51.2195 34.6159 50.9526 34.6455C50.8401 34.6582 50.7261 34.6709 50.6101 34.6829C50.7632 34.2381 50.7841 33.7306 50.6577 33.2485ZM55.9848 38.0061C56.1973 37.0525 56.386 36.1736 56.56 35.3525C58.0254 35.1424 59.4839 34.9148 60.9346 34.6688C59.9879 35.3103 59.0144 35.9659 58.0136 36.6399L57.8689 36.7375C57.2511 37.1533 56.6236 37.5755 55.9848 38.0061ZM58.6453 37.9096C60.6425 36.5648 62.5314 35.2926 64.3197 34.0619C70.8733 32.8186 77.2347 31.2165 83.2475 29.2924L82.6583 32.6826L58.3825 38.0865C58.4706 38.0273 58.5579 37.9688 58.6453 37.9096ZM52.6458 38.121C52.7185 37.3119 52.8184 36.5514 52.9435 35.8325C53.2028 35.8007 53.4614 35.7683 53.7199 35.7359L52.6458 38.121ZM53.4634 39.7133L54.8597 36.6134C54.6878 37.4021 54.5012 38.243 54.2936 39.1501C54.0661 39.3039 53.8376 39.4591 53.6081 39.615L53.4634 39.7133Z" fill="#333333"/>
</svg>
